<svg width="112" height="157" viewBox="0 0 112 157" fill="none" xmlns="http://www.w3.org/2000/svg">
<path d="M78.555 21C76.8981 21 75.555 22.3431 75.555 24V39.555C75.555 41.2119 74.2119 42.555 72.555 42.555H57C55.3431 42.555 54 43.8981 54 45.555V53.925C54 55.5819 55.3431 56.925 57 56.925H72.555C74.2119 56.925 75.555 58.2681 75.555 59.925V75.48C75.555 77.1369 76.8981 78.48 78.555 78.48H86.925C88.5819 78.48 89.925 77.1369 89.925 75.48V59.925C89.925 58.2681 91.2681 56.925 92.925 56.925H108.48C110.137 56.925 111.48 55.5819 111.48 53.925V45.555C111.48 43.8981 110.137 42.555 108.48 42.555H92.925C91.2681 42.555 89.925 41.2119 89.925 39.555V24C89.925 22.3431 88.5819 21 86.925 21H78.555Z" fill="white"/>
<path d="M29.952 103.536C27.2213 103.536 24.448 103.451 21.632 103.28C18.816 103.195 16.0427 102.981 13.312 102.64C7.25333 102.128 4.224 100.165 4.224 96.752C4.224 95.0453 4.90667 92.9973 6.272 90.608C9.51467 84.72 12.8427 78.8747 16.256 73.072C19.6693 67.184 23.04 61.296 26.368 55.408C27.392 53.5307 28.7147 51.184 30.336 48.368C31.9573 45.552 33.5787 42.864 35.2 40.304C35.968 39.1093 37.0773 37.9147 38.528 36.72C39.9787 35.44 41.472 34.6293 43.008 34.288C41.216 34.3733 38.912 34.5013 36.096 34.672C33.3653 34.8427 30.5493 35.184 27.648 35.696C24.832 36.1227 22.272 36.848 19.968 37.872C17.7493 38.8107 16.1707 40.1333 15.232 41.84C14.8907 42.608 14.592 43.376 14.336 44.144C14.08 44.912 13.952 45.68 13.952 46.448C13.952 48.4107 14.6347 49.8187 16 50.672C16.0853 50.672 16.128 50.7573 16.128 50.928C16.128 51.0987 15.9573 51.2693 15.616 51.44C15.36 51.6107 15.104 51.6533 14.848 51.568C14.08 51.1413 13.1413 50.1173 12.032 48.496C10.9227 46.7893 10.24 45.3813 9.984 44.272C9.728 43.248 9.6 42.3093 9.6 41.456C9.6 39.2373 10.3253 37.5307 11.776 36.336C13.2267 35.056 15.0613 34.16 17.28 33.648C19.4987 33.0507 21.76 32.7093 24.064 32.624C26.368 32.4533 28.416 32.368 30.208 32.368C34.7307 32.368 39.2533 32.3253 43.776 32.24C48.2987 32.0693 52.7787 31.984 57.216 31.984C59.1787 31.984 61.0987 31.984 62.976 31.984C64.9387 31.984 66.8587 32.0693 68.736 32.24C70.8693 32.3253 72.32 32.752 73.088 33.52C73.9413 34.288 74.368 35.2267 74.368 36.336C74.368 37.7013 73.8987 39.28 72.96 41.072C72.1067 42.7787 71.296 44.3573 70.528 45.808C70.1867 46.4907 69.632 47.0027 68.864 47.344C68.096 47.6 67.7973 47.344 67.968 46.576C68.3947 44.8693 68.608 43.1627 68.608 41.456C68.608 39.92 68.3093 38.5547 67.712 37.36C67.2 36.08 66.176 35.184 64.64 34.672C63.1893 34.2453 60.928 34.032 57.856 34.032C56.7467 34.032 55.5947 34.0747 54.4 34.16C53.2907 34.16 52.1387 34.2027 50.944 34.288C47.5307 34.544 45.2267 35.44 44.032 36.976C41.216 40.9013 38.4853 45.168 35.84 49.776C33.28 54.2987 30.8053 58.608 28.416 62.704C28.3307 62.8747 28.288 63.088 28.288 63.344C28.288 63.856 28.672 64.112 29.44 64.112C32.4267 64.112 35.6267 64.1547 39.04 64.24C42.5387 64.3253 45.6107 64.3253 48.256 64.24C48.8533 64.1547 49.7493 64.0693 50.944 63.984C52.224 63.8987 53.504 63.728 54.784 63.472C56.1493 63.216 57.1733 62.9173 57.856 62.576C58.2827 62.32 58.5387 62.192 58.624 62.192C59.136 62.192 59.136 62.704 58.624 63.728C58.1973 64.6667 57.4293 65.648 56.32 66.672C55.296 67.6107 54.1013 68.08 52.736 68.08C48.5547 68.08 45.0133 67.9947 42.112 67.824C39.296 67.6533 36.1387 67.568 32.64 67.568C31.7867 67.568 30.8907 67.568 29.952 67.568C29.0133 67.568 27.9893 67.6107 26.88 67.696C26.0267 67.7813 25.4293 68.1227 25.088 68.72C24.2347 70.256 23.4667 71.664 22.784 72.944C22.1867 74.224 21.4187 75.7173 20.48 77.424C19.7973 78.704 18.944 80.368 17.92 82.416C16.9813 84.3787 16.128 86.4267 15.36 88.56C14.592 90.608 14.208 92.4 14.208 93.936C14.208 96.5813 15.4453 98.416 17.92 99.44C20.3947 100.379 23.424 100.891 27.008 100.976C31.9573 100.976 36.8213 100.507 41.6 99.568C46.464 98.544 50.9867 96.88 55.168 94.576C59.4347 92.1867 63.1467 88.9867 66.304 84.976C66.4747 84.8053 66.6027 84.72 66.688 84.72C66.944 84.72 67.1147 84.976 67.2 85.488C67.2853 85.9147 67.2427 86.256 67.072 86.512C64.4267 89.7547 61.8667 92.912 59.392 95.984C56.9173 98.9707 54.4427 100.848 51.968 101.616C50.176 102.128 47.2747 102.555 43.264 102.896C39.2533 103.323 34.816 103.536 29.952 103.536Z" fill="#19504C"/>
</svg>